# xmcd CD database file
#
# Track frame offsets:
#	150
#	28780
#	40400
#
# Disc length: 735 seconds
#
# Revision: 0
# Processed by: cddbd v1.5.1PL0 Copyright (c) Steve Scherf et al.
# Submitted via: CDex 1.51
#
DISCID=2002dd03
DTITLE=鐵鎚 - 桜花  - SPLIT SINGLE
DYEAR=2000
DGENRE=Rock
TTITLE0=鐵鎚 - 儚き花よ
TTITLE1=桜花 - ゲキオウ
TTITLE2=桜花 - 土に逝く迄
EXTD=YEAR: 2000
EXTT0=
EXTT1=
EXTT2=
PLAYORDER=
